<svg xmlns="http://www.w3.org/2000/svg" width="22" height="22" viewBox="0 0 22 22">
  <g id="contacts-24px" opacity="0.496">
    <path id="Path_781" data-name="Path 781" d="M0,0H22V22H0ZM0,0H22V22H0ZM0,0H22V22H0Z" fill="none"/>
    <path id="Path_782" data-name="Path 782" d="M18.5,0H3.833V1.833H18.5ZM3.833,22H18.5V20.167H3.833ZM18.5,3.667H3.833A1.839,1.839,0,0,0,2,5.5v11a1.839,1.839,0,0,0,1.833,1.833H18.5A1.839,1.839,0,0,0,20.333,16.5V5.5A1.839,1.839,0,0,0,18.5,3.667ZM11.167,6.188A2.063,2.063,0,1,1,9.1,8.25,2.066,2.066,0,0,1,11.167,6.188Zm4.583,9.4H6.583V14.208c0-1.531,3.053-2.292,4.583-2.292s4.583.761,4.583,2.292Z" transform="translate(-0.167)" fill="#fff"/>
  </g>
</svg>
