<svg xmlns="http://www.w3.org/2000/svg" width="24" height="24" viewBox="0 0 24 24">
  <g id="dynamic_feed-24px" opacity="0.496">
    <g id="Group_923" data-name="Group 923">
      <rect id="Rectangle_307" data-name="Rectangle 307" width="24" height="24" fill="none"/>
    </g>
    <g id="Group_925" data-name="Group 925">
      <g id="Group_924" data-name="Group 924">
        <path id="Path_774" data-name="Path 774" d="M8,8H6v7a2.006,2.006,0,0,0,2,2h9V15H8Z" fill="#fff"/>
        <path id="Path_775" data-name="Path 775" d="M20,3H12a2.006,2.006,0,0,0-2,2v6a2.006,2.006,0,0,0,2,2h8a2.006,2.006,0,0,0,2-2V5A2.006,2.006,0,0,0,20,3Zm0,8H12V7h8Z" fill="#fff"/>
        <path id="Path_776" data-name="Path 776" d="M4,12H2v7a2.006,2.006,0,0,0,2,2h9V19H4Z" fill="#fff"/>
      </g>
    </g>
  </g>
</svg>
