<svg id="link_btn" xmlns="http://www.w3.org/2000/svg" width="24" height="24" viewBox="0 0 24 24">
  <path id="Path_800" data-name="Path 800" d="M0,0H24V24H0Z" fill="none"/>
  <g id="link" transform="translate(11.974 0.616) rotate(45)">
    <g id="Group_2" data-name="Group 2" transform="translate(0.039 5.163)">
      <g id="Group_1" data-name="Group 1" transform="translate(0)">
        <path id="Path_1" data-name="Path 1" d="M9.837,165.711a3.643,3.643,0,0,0-.629-.506,3.747,3.747,0,0,0-4.67.506l-3.4,3.407a3.747,3.747,0,0,0,5.3,5.3l2.81-2.81a.268.268,0,0,0-.19-.458H8.943a4.5,4.5,0,0,1-1.713-.332.268.268,0,0,0-.292.059L4.918,172.9a1.607,1.607,0,0,1-2.272-2.272l3.418-3.415a1.606,1.606,0,0,1,2.27,0,1.1,1.1,0,0,0,1.5,0,1.06,1.06,0,0,0,0-1.5Z" transform="translate(-0.039 -164.614)" fill="#b6b8c7"/>
      </g>
    </g>
    <g id="Group_4" data-name="Group 4" transform="translate(5.981 0)">
      <g id="Group_3" data-name="Group 3" transform="translate(0 0)">
        <path id="Path_2" data-name="Path 2" d="M198.52,1.1a3.747,3.747,0,0,0-5.3,0l-2.807,2.8a.269.269,0,0,0,.2.458h.1a4.5,4.5,0,0,1,1.71.335.268.268,0,0,0,.292-.059l2.015-2.013A1.607,1.607,0,1,1,197,4.9L194.487,7.4l-.021.024-.878.872a1.606,1.606,0,0,1-2.27,0,1.1,1.1,0,0,0-1.5,0,1.067,1.067,0,0,0,0,1.509,3.715,3.715,0,0,0,1.071.749c.056.027.112.048.169.072s.115.043.171.064.115.04.171.056l.158.043c.107.027.214.048.324.067a3.725,3.725,0,0,0,.4.037h.2l.161-.019c.059,0,.12-.016.19-.016h.091l.185-.027.086-.016.155-.032h.029a3.747,3.747,0,0,0,1.737-.985L198.52,6.4A3.747,3.747,0,0,0,198.52,1.1Z" transform="translate(-189.502 0)" fill="#b6b8c7"/>
      </g>
    </g>
  </g>
</svg>
