<svg xmlns="http://www.w3.org/2000/svg" width="493.185" height="495.107" viewBox="0 0 493.185 495.107">
  <g id="medical-icon" transform="translate(-60.043 -174.593)">
    <g id="Group_1000" data-name="Group 1000">
      <g id="Group_999" data-name="Group 999">
        <path id="Path_935" data-name="Path 935" d="M169,382.5c-8.2,8.3-15.2,15.3-22.6,22.8-1-.9-2.2-1.9-3.4-3q-35.85-35.85-71.8-71.8c-8-8-8.8-15.7-2.7-25.1A409.741,409.741,0,0,1,188.2,185.8c9-5.9,16.9-5.1,24.4,2.3l73.2,73.2c.7.7,1.3,1.5,1.6,1.8-7.3,7.2-14.5,14.2-23,22.5a84.879,84.879,0,0,0-6.6-8.1c-19-19.2-38.2-38.2-57.2-57.3-2.1-2.1-3.6-3.2-6.6-1a390.922,390.922,0,0,0-93,93.4,7.677,7.677,0,0,0-1,1.8C123.1,337.1,146,359.8,169,382.5Z" fill="#5079bf"/>
        <path id="Path_936" data-name="Path 936" d="M414.7,630.3a393.766,393.766,0,0,0,98.1-98q-34.8-34.5-68.6-68.2c7.6-7.6,14.7-14.8,22-22.1.9.9,2.2,1.9,3.3,3.1l71.4,71.4c8.2,8.2,9,15.8,2.6,25.5A407.069,407.069,0,0,1,424.6,660.9c-9.5,6.2-17.2,5.8-24.8-1.8-24.7-24.5-49.3-49.2-73.9-73.8a12.008,12.008,0,0,1-1.3-1.5l22-22Q380.35,595.4,414.7,630.3Z" fill="#5079bf"/>
      </g>
    </g>
    <path id="Path_937" data-name="Path 937" d="M187,665.3l-66.4-58c-.6-.5-1.1-1.1-1.6-1.6L64.5,543.9a17.911,17.911,0,0,1,.7-24.4L401.8,179.9a17.888,17.888,0,0,1,24.7-.7l58.7,53.3c.4.3.7.7,1.1,1l62.1,66.6a17.815,17.815,0,0,1-.4,24.8L211.4,664.4A17.814,17.814,0,0,1,187,665.3Z" fill="#5079bf"/>
    <path id="Path_938" data-name="Path 938" d="M311.3,546.9h0a13.067,13.067,0,0,1-18.4.1L183.2,438a13.067,13.067,0,0,1-.1-18.4h0a13.067,13.067,0,0,1,18.4-.1l109.7,109A13.067,13.067,0,0,1,311.3,546.9Z" fill="#fff"/>
    <path id="Path_939" data-name="Path 939" d="M428.1,430h0a13.067,13.067,0,0,1-18.4.1L300,321a13.067,13.067,0,0,1-.1-18.4h0a13.067,13.067,0,0,1,18.4-.1L428,411.5A13.1,13.1,0,0,1,428.1,430Z" fill="#fff"/>
    <circle id="Ellipse_107" data-name="Ellipse 107" cx="19.3" cy="19.3" r="19.3" transform="translate(226.8 386.8)" fill="#fff"/>
    <circle id="Ellipse_108" data-name="Ellipse 108" cx="19.3" cy="19.3" r="19.3" transform="translate(269.4 344.1)" fill="#fff"/>
    <circle id="Ellipse_109" data-name="Ellipse 109" cx="19.3" cy="19.3" r="19.3" transform="translate(270.5 430.5)" fill="#fff"/>
    <circle id="Ellipse_110" data-name="Ellipse 110" cx="19.3" cy="19.3" r="19.3" transform="translate(313.2 387.9)" fill="#fff"/>
    <circle id="Ellipse_111" data-name="Ellipse 111" cx="19.3" cy="19.3" r="19.3" transform="translate(311 471)" fill="#fff"/>
    <circle id="Ellipse_112" data-name="Ellipse 112" cx="19.3" cy="19.3" r="19.3" transform="translate(353.7 428.4)" fill="#fff"/>
  </g>
</svg>
