<svg xmlns="http://www.w3.org/2000/svg" width="801.875" height="76.435" viewBox="0 0 801.875 76.435">
  <path id="modal_footer_bg" d="M28.077,0H362.284s1.15-.317,6.1,0c10.674.36,7.668,9.116,19.547,19.75,12.405,7.007,21.892,4.993,30.131-.93C431.278,5.547,423.4-.005,434.69,0H774.923c15.506,0,27.4,5.544,27.414,23.313S763.917,46.92,763.917,46.92s-95.228,13.5-272.782,14.45c-14.371.093-57.3,14.645-89.479,14.925-28.726-.341-66.382-14.8-82.279-14.925C141.355,60.362,32.956,47.5,32.956,47.5S.727,41.889.466,24.75,12.57,0,28.077,0Z" transform="translate(-0.462 0.141)" fill="rgba(1,8,41,0.82)"/>
</svg>
