<svg xmlns="http://www.w3.org/2000/svg" width="35" height="35" viewBox="0 0 35 35">
  <g id="perm_contact_calendar-24px" opacity="0.937">
    <path id="Path_794" data-name="Path 794" d="M0,0H35V35H0Z" fill="none"/>
    <path id="Path_795" data-name="Path 795" d="M29.017,5.7a3.224,3.224,0,0,0-.262-.5,2.891,2.891,0,0,0-.788-.787,3.224,3.224,0,0,0-.5-.262,2.936,2.936,0,0,0-1.138-.233H24.875V1H21.958V3.917H10.292V1H7.375V3.917H5.917a2.957,2.957,0,0,0-1.633.5A2.891,2.891,0,0,0,3.5,5.2a3.224,3.224,0,0,0-.263.5A2.936,2.936,0,0,0,3,6.833V27.25a2.916,2.916,0,0,0,2.917,2.917H26.333a2.936,2.936,0,0,0,1.138-.233,3.224,3.224,0,0,0,.5-.263,2.891,2.891,0,0,0,.788-.788,2.994,2.994,0,0,0,.5-1.633V6.833A2.936,2.936,0,0,0,29.017,5.7ZM5.917,27.25V6.833H26.333V27.25Zm10.208-8.925c-2.96,0-8.75,1.575-8.75,5.221v2.246h17.5V23.56C24.875,19.9,19.085,18.325,16.125,18.325Zm-5.381,4.55a10.225,10.225,0,0,1,5.381-1.633,10.182,10.182,0,0,1,5.381,1.633Zm5.381-5.833a4.375,4.375,0,1,0-4.375-4.375A4.388,4.388,0,0,0,16.125,17.042Zm0-5.833a1.458,1.458,0,1,1-1.458,1.458A1.463,1.463,0,0,1,16.125,11.208Z" transform="translate(1.375 0.458)" fill="#fff"/>
  </g>
</svg>
