<svg id="preview-24px" xmlns="http://www.w3.org/2000/svg" width="24" height="24" viewBox="0 0 24 24">
  <rect id="Rectangle_328" data-name="Rectangle 328" width="24" height="24" fill="none"/>
  <path id="Path_817" data-name="Path 817" d="M19,3H5A2,2,0,0,0,3,5V19a2,2,0,0,0,2,2H19a2.006,2.006,0,0,0,2-2V5A2,2,0,0,0,19,3Zm0,16H5V7H19Zm-7-8.5A4.927,4.927,0,0,1,16.34,13a5.017,5.017,0,0,1-8.68,0A4.927,4.927,0,0,1,12,10.5M12,9a6.445,6.445,0,0,0-6,4,6.5,6.5,0,0,0,12,0,6.445,6.445,0,0,0-6-4Zm0,5.5A1.5,1.5,0,1,1,13.5,13,1.5,1.5,0,0,1,12,14.5Z" fill="#fff"/>
</svg>
