<svg xmlns="http://www.w3.org/2000/svg" width="20" height="21" viewBox="0 0 20 21">
  <g id="qr_code_scanner-24px" transform="translate(-0.5 0.396)" opacity="0.576">
    <rect id="Rectangle_329" data-name="Rectangle 329" width="20" height="21" transform="translate(0.5 -0.396)" fill="none"/>
    <path id="Path_818" data-name="Path 818" d="M8.439,5.863V8.439H5.863V5.863H8.439M9.726,4.575H4.575V9.726H9.726V4.575ZM8.439,12.731v2.575H5.863V12.731H8.439m1.288-1.288H4.575v5.151H9.726V11.443Zm5.58-5.58V8.439H12.731V5.863h2.575m1.288-1.288H11.443V9.726h5.151V4.575Zm-5.151,6.868h1.288v1.288H11.443Zm1.288,1.288h1.288v1.288H12.731Zm1.288-1.288h1.288v1.288H14.019Zm-2.575,2.575h1.288v1.288H11.443Zm1.288,1.288h1.288v1.288H12.731Zm1.288-1.288h1.288v1.288H14.019Zm1.288-1.288h1.288v1.288H15.306Zm0,2.575h1.288v1.288H15.306ZM19.17,6.292H17.453V3.717H14.877V2H19.17Zm0,12.877V14.877H17.453v2.575H14.877V19.17ZM2,19.17H6.292V17.453H3.717V14.877H2ZM2,2V6.292H3.717V3.717H6.292V2Z" transform="translate(-0.283 -0.283)" fill="#fff"/>
  </g>
</svg>
