<svg xmlns="http://www.w3.org/2000/svg" width="33" height="33" viewBox="0 0 33 33">
  <g id="savings-24px" opacity="0.937">
    <rect id="Rectangle_313" data-name="Rectangle 313" width="33" height="33" fill="none"/>
    <g id="Group_950" data-name="Group 950" transform="translate(2.787 2.787)">
      <path id="Path_796" data-name="Path 796" d="M20.116,13.148a1.394,1.394,0,1,1,1.394,1.394A1.4,1.4,0,0,1,20.116,13.148Zm-9.755-1.394h6.968V8.968H10.361ZM29.87,9.664v9.713l-3.93,1.31L23.6,28.477H15.935V25.69H13.148v2.787H5.484S2,16.688,2,12.451A7.66,7.66,0,0,1,9.664,4.787h6.968A6.961,6.961,0,0,1,22.206,2,2.087,2.087,0,0,1,24.3,4.09a1.952,1.952,0,0,1-.167.808,6.736,6.736,0,0,0-.446,1.6l3.163,3.163Zm-2.787,2.787H25.69L20.813,7.574a10.051,10.051,0,0,1,.362-2.662,4.2,4.2,0,0,0-2.912,2.662h-8.6a4.883,4.883,0,0,0-4.877,4.877c0,2.62,1.7,9.267,2.8,13.238h2.773V22.9h8.361V25.69h2.8l2.16-7.177,3.4-1.143Z" transform="translate(-2 -2)" fill="#fff"/>
    </g>
  </g>
</svg>
