<svg xmlns="http://www.w3.org/2000/svg" width="24" height="24" viewBox="0 0 24 24">
  <g id="speaker_phone-24px" opacity="0.496">
    <path id="Path_779" data-name="Path 779" d="M0,0H24V24H0ZM0,0H24V24H0Z" fill="none"/>
    <path id="Path_780" data-name="Path 780" d="M7,7.07,8.43,8.5a5.046,5.046,0,0,1,7.14,0L17,7.07a7.074,7.074,0,0,0-10,0ZM12,1A10.963,10.963,0,0,0,4.25,4.21L5.66,5.62a8.981,8.981,0,0,1,12.68,0l1.41-1.41A10.963,10.963,0,0,0,12,1Zm2.86,9.01L9.14,10A1.139,1.139,0,0,0,8,11.14v9.71a1.139,1.139,0,0,0,1.14,1.14h5.71a1.139,1.139,0,0,0,1.14-1.14V11.14a1.116,1.116,0,0,0-1.13-1.13ZM15,20H9V12h6Z" fill="#fff"/>
  </g>
</svg>
