<svg xmlns="http://www.w3.org/2000/svg" width="60" height="60" viewBox="0 0 60 60">
  <g id="linkedin" transform="translate(-376 -708)">
    <rect id="Rectangle_309" data-name="Rectangle 309" width="60" height="60" rx="5" transform="translate(376 708)" fill="#007ab7"/>
    <path id="Linkedin-2" data-name="Linkedin" d="M31.029,39.129V26.423c0-3.036-.045-6.935-4.21-6.935-4.223,0-4.856,3.309-4.856,6.709V39.129h-8.1V12.992h7.754v3.581h.106A8.519,8.519,0,0,1,29.4,12.358c8.207,0,9.73,5.408,9.73,12.449V39.129Zm-22.282,0H.634V12.992H8.749V39.127h0Zm5.1-26.136h.015ZM0,4.714A4.706,4.706,0,1,1,4.706,9.427,4.715,4.715,0,0,1,0,4.714Z" transform="translate(386.436 717.936)" fill="#fff"/>
  </g>
</svg>
