<svg xmlns="http://www.w3.org/2000/svg" width="60" height="60" viewBox="0 0 60 60">
  <g id="snapchat" transform="translate(-376 -708)">
    <rect id="Rectangle_309" data-name="Rectangle 309" width="60" height="60" rx="5" transform="translate(376 708)" fill="#fffc00"/>
    <g id="Snapchat-2" data-name="Snapchat" transform="translate(725.151 419.224)">
      <path id="Shape" d="M36.144,26.861c-4.68-.829-6.773-5.679-7.019-6.253v-.064a1.522,1.522,0,0,1-.185-1.212c.246-.574,1.293-.957,1.97-1.148a4.153,4.153,0,0,0,.493-.191c1.293-.574,1.97-1.276,1.97-2.106a1.726,1.726,0,0,0-1.231-1.531,1.909,1.909,0,0,0-.862-.191,2.339,2.339,0,0,0-.8.191A4.521,4.521,0,0,1,29,14.8a.757.757,0,0,1-.369-.064,2.036,2.036,0,0,0,.062-.638v-.128c.123-2.616.369-5.87-.493-7.784A10.018,10.018,0,0,0,18.9,0h-.739A9.9,9.9,0,0,0,8.928,6.189c-.862,1.914-.677,5.168-.493,7.784a3.217,3.217,0,0,1,.062.766c-.123,0-.308.064-.493.064a3.383,3.383,0,0,1-1.6-.447A2.134,2.134,0,0,0,3.694,15.7c-.123.638.123,1.531,1.97,2.3a2.8,2.8,0,0,0,.554.191c.616.191,1.662.574,1.909,1.148a1.545,1.545,0,0,1-.185,1.212C7.82,20.736,5.665,25.9.8,26.734A1.088,1.088,0,0,0,0,27.819a.946.946,0,0,0,.123.447c.369,1.021,1.97,1.659,4.864,2.169.062.191.123.574.185.766.062.255.123.574.185.893a1.063,1.063,0,0,0,1.108.829,4.669,4.669,0,0,0,.862-.128,7.328,7.328,0,0,1,1.909-.255,5.406,5.406,0,0,1,1.416.191,6.1,6.1,0,0,1,2.525,1.34,7.129,7.129,0,0,0,4.864,1.659h.431a9.667,9.667,0,0,0,5.542-1.659,6.956,6.956,0,0,1,2.525-1.34,9.73,9.73,0,0,1,1.355-.128A8.425,8.425,0,0,1,29.8,32.8a6.2,6.2,0,0,0,.924.128,1.062,1.062,0,0,0,1.047-.829c.062-.319.123-.574.185-.893.062-.128.123-.51.185-.7,2.894-.447,4.31-1.148,4.741-2.106a1.216,1.216,0,0,0,.123-.447A1.088,1.088,0,0,0,36.144,26.861Z" transform="translate(-337.653 300.91)"/>
      <path id="Path" d="M30.294,27.946c-.739.064-.862.829-1.047,1.659-.062.191-.123.447-.185.7a2.732,2.732,0,0,1-.616-.064,10.048,10.048,0,0,0-2.155-.255,13.579,13.579,0,0,0-1.539.128,7.321,7.321,0,0,0-3.017,1.6,7.532,7.532,0,0,1-4.741,1.467h-.308A6.3,6.3,0,0,1,12.5,31.711a6.961,6.961,0,0,0-3.017-1.6,12.524,12.524,0,0,0-1.539-.128,8.706,8.706,0,0,0-2.155.255,2.627,2.627,0,0,1-.616.128L4.987,29.6c-.185-.829-.308-1.6-1.047-1.723C1.231,27.5.308,26.925,0,26.67c5.049-1.085,7.389-6.189,7.7-6.891a2.9,2.9,0,0,0,.185-2.233A3.963,3.963,0,0,0,5.172,15.7a.866.866,0,0,1-.431-.128c-1.047-.447-1.232-.829-1.232-.893,0-.191.431-.447.8-.447h.185a4.7,4.7,0,0,0,2.093.574,2.111,2.111,0,0,0,1.539-.574.589.589,0,0,0,.185-.447c0-.383-.062-.766-.062-1.148-.185-2.488-.369-5.551.369-7.21A8.69,8.69,0,0,1,16.748,0h.677a8.856,8.856,0,0,1,8.189,5.3c.677,1.659.493,4.722.369,7.21v.128c0,.383-.062.7-.062,1.021a.74.74,0,0,0,.185.51,2.2,2.2,0,0,0,1.478.574,6.674,6.674,0,0,0,1.97-.574.877.877,0,0,1,.677.064c.308.128.431.319.431.383,0,.128-.246.51-1.231.893a4.153,4.153,0,0,1-.493.191,3.986,3.986,0,0,0-2.648,1.85,2.647,2.647,0,0,0,.185,2.233c.246.638,2.525,5.87,7.635,6.955C33.8,26.989,32.942,27.5,30.294,27.946Z" transform="translate(-336.176 302.186)" fill="#fff"/>
    </g>
  </g>
</svg>
