<svg xmlns="http://www.w3.org/2000/svg" width="60" height="60" viewBox="0 0 60 60">
  <g id="tiktok" transform="translate(-376 -708)">
    <rect id="Rectangle_309" data-name="Rectangle 309" width="60" height="60" rx="5" transform="translate(376 708)"/>
    <path id="tiktok-2" data-name="tiktok" d="M57,32.723h0c-.375.038-.754.055-1.129.059a12.292,12.292,0,0,1-10.3-5.552V46.137A13.979,13.979,0,1,1,31.6,32.162c.294,0,.576.028.865.045v6.884A7.115,7.115,0,1,0,31.6,53.27a7.308,7.308,0,0,0,7.435-7.039l.069-32.12H45.69A12.268,12.268,0,0,0,57,25.064Z" transform="translate(368.821 700.885)" fill="#fff"/>
  </g>
</svg>
